<svg xmlns="http://www.w3.org/2000/svg" xmlns:xlink="http://www.w3.org/1999/xlink" contentStyleType="text/css" data-diagram-type="SEQUENCE" height="544px" preserveAspectRatio="none" style="width:999px;height:544px;background:#FFFFFF;" version="1.1" viewBox="0 0 999 544" width="999px" zoomAndPan="magnify"><defs/><g><line style="stroke:#181818;stroke-width:0.5;stroke-dasharray:5.0,5.0;" x1="23" x2="23" y1="81.2969" y2="463.8906"/><line style="stroke:#181818;stroke-width:0.5;stroke-dasharray:5.0,5.0;" x1="165.4712" x2="165.4712" y1="81.2969" y2="463.8906"/><line style="stroke:#181818;stroke-width:0.5;stroke-dasharray:5.0,5.0;" x1="350.3354" x2="350.3354" y1="81.2969" y2="463.8906"/><line style="stroke:#181818;stroke-width:0.5;stroke-dasharray:5.0,5.0;" x1="509.3403" x2="509.3403" y1="81.2969" y2="463.8906"/><line style="stroke:#181818;stroke-width:0.5;stroke-dasharray:5.0,5.0;" x1="586.6455" x2="586.6455" y1="81.2969" y2="463.8906"/><line style="stroke:#181818;stroke-width:0.5;stroke-dasharray:5.0,5.0;" x1="718.2969" x2="718.2969" y1="81.2969" y2="463.8906"/><line style="stroke:#181818;stroke-width:0.5;stroke-dasharray:5.0,5.0;" x1="819.0977" x2="819.0977" y1="81.2969" y2="463.8906"/><line style="stroke:#181818;stroke-width:0.5;stroke-dasharray:5.0,5.0;" x1="938.1592" x2="938.1592" y1="81.2969" y2="463.8906"/><text fill="#000000" font-family="sans-serif" font-size="14" lengthAdjust="spacing" textLength="31.9102" x="5" y="77.9951">User</text><ellipse cx="23.9551" cy="13.5" fill="#E2E2F0" rx="8" ry="8" style="stroke:#181818;stroke-width:0.5;"/><path d="M23.9551,21.5 L23.9551,48.5 M10.9551,29.5 L36.9551,29.5 M23.9551,48.5 L10.9551,63.5 M23.9551,48.5 L36.9551,63.5 " fill="none" style="stroke:#181818;stroke-width:0.5;"/><text fill="#000000" font-family="sans-serif" font-size="14" lengthAdjust="spacing" textLength="31.9102" x="5" y="475.8857">User</text><ellipse cx="23.9551" cy="487.6875" fill="#E2E2F0" rx="8" ry="8" style="stroke:#181818;stroke-width:0.5;"/><path d="M23.9551,495.6875 L23.9551,522.6875 M10.9551,503.6875 L36.9551,503.6875 M23.9551,522.6875 L10.9551,537.6875 M23.9551,522.6875 L36.9551,537.6875 " fill="none" style="stroke:#181818;stroke-width:0.5;"/><rect fill="#E2E2F0" height="30.2969" rx="2.5" ry="2.5" style="stroke:#181818;stroke-width:0.5;" width="78.5928" x="126.4712" y="50"/><text fill="#000000" font-family="sans-serif" font-size="14" lengthAdjust="spacing" textLength="64.5928" x="133.4712" y="69.9951">pygeoapi</text><rect fill="#E2E2F0" height="30.2969" rx="2.5" ry="2.5" style="stroke:#181818;stroke-width:0.5;" width="78.5928" x="126.4712" y="462.8906"/><text fill="#000000" font-family="sans-serif" font-size="14" lengthAdjust="spacing" textLength="64.5928" x="133.4712" y="482.8857">pygeoapi</text><rect fill="#E2E2F0" height="30.2969" rx="2.5" ry="2.5" style="stroke:#181818;stroke-width:0.5;" width="124.9063" x="288.3354" y="50"/><text fill="#000000" font-family="sans-serif" font-size="14" lengthAdjust="spacing" textLength="110.9063" x="295.3354" y="69.9951">PrefectManager</text><rect fill="#E2E2F0" height="30.2969" rx="2.5" ry="2.5" style="stroke:#181818;stroke-width:0.5;" width="124.9063" x="288.3354" y="462.8906"/><text fill="#000000" font-family="sans-serif" font-size="14" lengthAdjust="spacing" textLength="110.9063" x="295.3354" y="482.8857">PrefectManager</text><rect fill="#E2E2F0" height="30.2969" rx="2.5" ry="2.5" style="stroke:#181818;stroke-width:0.5;" width="67.6621" x="476.3403" y="50"/><text fill="#000000" font-family="sans-serif" font-size="14" lengthAdjust="spacing" textLength="53.6621" x="483.3403" y="69.9951">Process</text><rect fill="#E2E2F0" height="30.2969" rx="2.5" ry="2.5" style="stroke:#181818;stroke-width:0.5;" width="67.6621" x="476.3403" y="462.8906"/><text fill="#000000" font-family="sans-serif" font-size="14" lengthAdjust="spacing" textLength="53.6621" x="483.3403" y="482.8857">Process</text><rect fill="#E2E2F0" height="30.2969" rx="2.5" ry="2.5" style="stroke:#181818;stroke-width:0.5;" width="63.54" x="555.6455" y="50"/><text fill="#000000" font-family="sans-serif" font-size="14" lengthAdjust="spacing" textLength="49.54" x="562.6455" y="69.9951">Prefect</text><rect fill="#E2E2F0" height="30.2969" rx="2.5" ry="2.5" style="stroke:#181818;stroke-width:0.5;" width="63.54" x="555.6455" y="462.8906"/><text fill="#000000" font-family="sans-serif" font-size="14" lengthAdjust="spacing" textLength="49.54" x="562.6455" y="482.8857">Prefect</text><text fill="#000000" font-family="sans-serif" font-size="14" lengthAdjust="spacing" textLength="66.8008" x="682.2969" y="77.9951">Database</text><path d="M700.6973,29 C700.6973,19 718.6973,19 718.6973,19 C718.6973,19 736.6973,19 736.6973,29 L736.6973,55 C736.6973,65 718.6973,65 718.6973,65 C718.6973,65 700.6973,65 700.6973,55 L700.6973,29 " fill="#E2E2F0" style="stroke:#181818;stroke-width:1.5;"/><path d="M700.6973,29 C700.6973,39 718.6973,39 718.6973,39 C718.6973,39 736.6973,39 736.6973,29 " fill="none" style="stroke:#181818;stroke-width:1.5;"/><text fill="#000000" font-family="sans-serif" font-size="14" lengthAdjust="spacing" textLength="66.8008" x="682.2969" y="475.8857">Database</text><path d="M700.6973,489.1875 C700.6973,479.1875 718.6973,479.1875 718.6973,479.1875 C718.6973,479.1875 736.6973,479.1875 736.6973,489.1875 L736.6973,515.1875 C736.6973,525.1875 718.6973,525.1875 718.6973,525.1875 C718.6973,525.1875 700.6973,525.1875 700.6973,515.1875 L700.6973,489.1875 " fill="#E2E2F0" style="stroke:#181818;stroke-width:1.5;"/><path d="M700.6973,489.1875 C700.6973,499.1875 718.6973,499.1875 718.6973,499.1875 C718.6973,499.1875 736.6973,499.1875 736.6973,489.1875 " fill="none" style="stroke:#181818;stroke-width:1.5;"/><rect fill="#E2E2F0" height="30.2969" style="stroke:#181818;stroke-width:0.5;" width="105.0615" x="769.0977" y="46"/><rect fill="#E2E2F0" height="30.2969" style="stroke:#181818;stroke-width:0.5;" width="105.0615" x="765.0977" y="50"/><text fill="#000000" font-family="sans-serif" font-size="14" lengthAdjust="spacing" textLength="91.0615" x="772.0977" y="69.9951">Data storage</text><rect fill="#E2E2F0" height="30.2969" style="stroke:#181818;stroke-width:0.5;" width="105.0615" x="769.0977" y="462.8906"/><rect fill="#E2E2F0" height="30.2969" style="stroke:#181818;stroke-width:0.5;" width="105.0615" x="765.0977" y="466.8906"/><text fill="#000000" font-family="sans-serif" font-size="14" lengthAdjust="spacing" textLength="91.0615" x="772.0977" y="486.8857">Data storage</text><rect fill="#E2E2F0" height="30.2969" style="stroke:#181818;stroke-width:0.5;" width="105.0615" x="888.1592" y="46"/><rect fill="#E2E2F0" height="30.2969" style="stroke:#181818;stroke-width:0.5;" width="105.0615" x="884.1592" y="50"/><text fill="#000000" font-family="sans-serif" font-size="14" lengthAdjust="spacing" textLength="91.0615" x="891.1592" y="69.9951">Data storage</text><rect fill="#E2E2F0" height="30.2969" style="stroke:#181818;stroke-width:0.5;" width="105.0615" x="888.1592" y="462.8906"/><rect fill="#E2E2F0" height="30.2969" style="stroke:#181818;stroke-width:0.5;" width="105.0615" x="884.1592" y="466.8906"/><text fill="#000000" font-family="sans-serif" font-size="14" lengthAdjust="spacing" textLength="91.0615" x="891.1592" y="486.8857">Data storage</text><polygon fill="#181818" points="153.7676,108.4297,163.7676,112.4297,153.7676,116.4297,157.7676,112.4297" style="stroke:#181818;stroke-width:1;"/><line style="stroke:#181818;stroke-width:1;" x1="23.9551" x2="159.7676" y1="112.4297" y2="112.4297"/><text fill="#000000" font-family="sans-serif" font-size="13" lengthAdjust="spacing" textLength="117.8125" x="30.9551" y="107.3638">execution request</text><polygon fill="#181818" points="338.7886,137.5625,348.7886,141.5625,338.7886,145.5625,342.7886,141.5625" style="stroke:#181818;stroke-width:1;"/><line style="stroke:#181818;stroke-width:1;" x1="165.7676" x2="344.7886" y1="141.5625" y2="141.5625"/><text fill="#000000" font-family="sans-serif" font-size="13" lengthAdjust="spacing" textLength="135.3828" x="172.7676" y="136.4966">call execute_process</text><polygon fill="#181818" points="498.1714,166.6953,508.1714,170.6953,498.1714,174.6953,502.1714,170.6953" style="stroke:#181818;stroke-width:1;"/><line style="stroke:#181818;stroke-width:1;" x1="350.7886" x2="504.1714" y1="170.6953" y2="170.6953"/><text fill="#000000" font-family="sans-serif" font-size="13" lengthAdjust="spacing" textLength="135.3828" x="357.7886" y="165.6294">call execute_process</text><polygon fill="#181818" points="575.4155,195.8281,585.4155,199.8281,575.4155,203.8281,579.4155,199.8281" style="stroke:#181818;stroke-width:1;"/><line style="stroke:#181818;stroke-width:1;" x1="510.1714" x2="581.4155" y1="199.8281" y2="199.8281"/><text fill="#000000" font-family="sans-serif" font-size="13" lengthAdjust="spacing" textLength="53.2441" x="517.1714" y="194.7622">call flow</text><polygon fill="#181818" points="706.6973,224.9609,716.6973,228.9609,706.6973,232.9609,710.6973,228.9609" style="stroke:#181818;stroke-width:1;"/><line style="stroke:#181818;stroke-width:1;" x1="587.4155" x2="712.6973" y1="228.9609" y2="228.9609"/><text fill="#000000" font-family="sans-serif" font-size="13" lengthAdjust="spacing" textLength="107.2817" x="594.4155" y="223.895">register flow run</text><line style="stroke:#181818;stroke-width:1;" x1="587.4155" x2="629.4155" y1="258.0938" y2="258.0938"/><line style="stroke:#181818;stroke-width:1;" x1="629.4155" x2="629.4155" y1="258.0938" y2="271.0938"/><line style="stroke:#181818;stroke-width:1;" x1="588.4155" x2="629.4155" y1="271.0938" y2="271.0938"/><polygon fill="#181818" points="598.4155,267.0938,588.4155,271.0938,598.4155,275.0938,594.4155,271.0938" style="stroke:#181818;stroke-width:1;"/><text fill="#000000" font-family="sans-serif" font-size="13" lengthAdjust="spacing" textLength="83.0781" x="594.4155" y="253.0278">execute flow</text><polygon fill="#181818" points="926.6899,296.2266,936.6899,300.2266,926.6899,304.2266,930.6899,300.2266" style="stroke:#181818;stroke-width:1;"/><line style="stroke:#181818;stroke-width:1;" x1="510.1714" x2="932.6899" y1="300.2266" y2="300.2266"/><text fill="#000000" font-family="sans-serif" font-size="13" lengthAdjust="spacing" textLength="117.165" x="517.1714" y="295.1606">store result as file</text><polygon fill="#181818" points="807.6284,325.3594,817.6284,329.3594,807.6284,333.3594,811.6284,329.3594" style="stroke:#181818;stroke-width:1;"/><line style="stroke:#181818;stroke-width:1;" x1="587.4155" x2="813.6284" y1="329.3594" y2="329.3594"/><text fill="#000000" font-family="sans-serif" font-size="13" lengthAdjust="spacing" textLength="145.6787" x="594.4155" y="324.2935">store result info as file</text><polygon fill="#181818" points="361.7886,354.4922,351.7886,358.4922,361.7886,362.4922,357.7886,358.4922" style="stroke:#181818;stroke-width:1;"/><line style="stroke:#181818;stroke-width:1;" x1="355.7886" x2="818.6284" y1="358.4922" y2="358.4922"/><text fill="#000000" font-family="sans-serif" font-size="13" lengthAdjust="spacing" textLength="120.7959" x="367.7886" y="353.4263">retrieve result info</text><polygon fill="#181818" points="361.7886,383.625,351.7886,387.625,361.7886,391.625,357.7886,387.625" style="stroke:#181818;stroke-width:1;"/><line style="stroke:#181818;stroke-width:1;" x1="355.7886" x2="937.6899" y1="387.625" y2="387.625"/><text fill="#000000" font-family="sans-serif" font-size="13" lengthAdjust="spacing" textLength="92.2822" x="367.7886" y="382.5591">retrieve result</text><polygon fill="#181818" points="176.7676,412.7578,166.7676,416.7578,176.7676,420.7578,172.7676,416.7578" style="stroke:#181818;stroke-width:1;"/><line style="stroke:#181818;stroke-width:1;" x1="170.7676" x2="349.7886" y1="416.7578" y2="416.7578"/><text fill="#000000" font-family="sans-serif" font-size="13" lengthAdjust="spacing" textLength="161.021" x="182.7676" y="411.6919">return infos for response</text><polygon fill="#181818" points="34.9551,441.8906,24.9551,445.8906,34.9551,449.8906,30.9551,445.8906" style="stroke:#181818;stroke-width:1;"/><line style="stroke:#181818;stroke-width:1;" x1="28.9551" x2="164.7676" y1="445.8906" y2="445.8906"/><text fill="#000000" font-family="sans-serif" font-size="13" lengthAdjust="spacing" textLength="103.7271" x="40.9551" y="440.8247">return response</text><!--SRC=[ZPAxRiCm34LtVGMHfLCADACHUEfQe4ldG9PfGu0ggNhqyVUbdd7I5CZa2zt3Iv4o5y4uUFFeW7k8z6MMko25j5m7i3yh6cvbCfk-05uTBYZ22zTyBHdlHRA7kp0u7dlmoHRgiNdZUDNB2FG-twN8MrSfTfPive5Ft2CyDq7cF35Xb29V6krXbppmj0RgkKj0rK_tOGV6qjfWFvwtDG1-euYf4Xn-HFI1TPF0Ek00WYjLMJoreThuAR4S_GFMRm7pn1LSbFbYzIYvypJGFLRf0yKc4rpKMw2NrnOjeUUtOOUiaD9yL7dNYrIuZMhRkoAbNap7- -FlDxZ3u2H-NbJS80z_oFDgYUgh9IWwdLEeA_ta15jwIIpFHMWhwsmZVW40]--></g></svg>